<svg width="69" height="69" viewBox="0 0 69 69" fill="none" xmlns="http://www.w3.org/2000/svg">
<g clip-path="url(#clip0_7_58)">
<path d="M68.9322 -0.000305176H0V68.9319H68.9322V-0.000305176Z" fill="#3058A6"/>
<path d="M62.9365 28.4948C62.5069 27.6405 61.5971 27.1211 60.6571 27.2029L57.7997 27.4117C54.7004 16.2091 44.4409 7.94678 32.2641 7.94678C17.6413 7.94659 5.74481 19.844 5.74481 34.4656C5.74481 49.0884 17.6413 60.9847 32.2639 60.9847C40.7281 60.9847 48.7555 56.8897 53.737 50.0323C54.5016 48.9773 54.2664 47.5048 53.2135 46.7382C52.1586 45.9727 50.6849 46.2106 49.9204 47.2606C45.8224 52.9017 39.2222 56.2704 32.2628 56.2704C20.2393 56.2704 10.4588 46.489 10.4588 34.4664C10.4588 22.4438 20.2394 12.6628 32.2629 12.6628C41.9464 12.6628 50.1666 19.0129 53.0018 27.7636L51.514 27.8725C50.5638 27.9411 49.7479 28.5784 49.4484 29.4822C49.1478 30.3879 49.4241 31.3844 50.1444 32.0077L54.4248 35.7042C54.8413 36.3749 55.5777 36.8237 56.4229 36.8237C56.4672 36.8237 56.5085 36.8136 56.5519 36.8116C56.566 36.8116 56.5772 36.8177 56.5903 36.8177C56.6469 36.8177 56.7044 36.8168 56.7628 36.8116C57.386 36.7652 57.965 36.4737 58.3746 36.0007L62.6116 31.0948C63.2371 30.3738 63.3641 29.3459 62.9365 28.4948Z" fill="white" stroke="white" stroke-width="0.172168"/>
<path d="M19.7957 42.6817V40.3922L21.8835 38.5052C25.4125 35.3483 27.1273 33.5327 27.1766 31.6446C27.1766 30.3263 26.3818 29.2834 24.516 29.2834C23.1252 29.2834 21.9067 29.9773 21.0615 30.6258L19.9924 27.9147C21.2107 26.9979 23.0989 26.2506 25.2866 26.2506C28.9408 26.2506 30.9539 28.3878 30.9539 31.3208C30.9539 34.0298 28.9913 36.1933 26.6542 38.2802L25.1626 39.5228V39.5712H31.2525V42.6797H19.7957V42.6817Z" fill="white" stroke="white" stroke-width="0.172168"/>
<path d="M40.2843 42.6817V38.8278H33.1263V36.3689L39.2405 26.5239H43.864V35.9947H45.8025V38.8278H43.864V42.6817H40.2843ZM40.2843 35.9947V32.4162C40.2843 31.446 40.3338 30.4535 40.4084 29.4086H40.3096C39.7861 30.4535 39.3635 31.3976 38.8179 32.4162L36.6555 35.9452V35.9947H40.2843Z" fill="white" stroke="white" stroke-width="0.172168"/>
</g>
<defs>
<clipPath id="clip0_7_58">
<rect y="-0.000305176" width="68.9322" height="68.9322" rx="20" fill="white"/>
</clipPath>
</defs>
</svg>
