<svg width="21" height="21" viewBox="0 0 21 21" fill="none" xmlns="http://www.w3.org/2000/svg">
<path fill-rule="evenodd" clip-rule="evenodd" d="M21 10C21 15.5228 16.5228 20 11 20C5.47715 20 1 15.5228 1 10C1 4.47715 5.47715 0 11 0C16.5228 0 21 4.47715 21 10ZM15.0303 6.96967C15.3232 7.26256 15.3232 7.73744 15.0303 8.0303L10.0303 13.0303C9.7374 13.3232 9.2626 13.3232 8.96967 13.0303L6.96967 11.0303C6.67678 10.7374 6.67678 10.2626 6.96967 9.9697C7.26256 9.6768 7.73744 9.6768 8.03033 9.9697L9.5 11.4393L11.7348 9.2045L13.9697 6.96967C14.2626 6.67678 14.7374 6.67678 15.0303 6.96967Z" fill="black" stroke="black" stroke-width="0.00064"/>
</svg>
