<svg width="32" height="32" viewBox="0 0 32 32" fill="none" xmlns="http://www.w3.org/2000/svg">
<path d="M12.1056 9.5525C12.1952 9.37321 12.3366 9.22498 12.5114 9.12702C12.6863 9.02907 12.8865 8.98592 13.0862 9.00316C13.2859 9.02041 13.4758 9.09726 13.6313 9.22374C13.7867 9.35023 13.9006 9.52051 13.9581 9.7125L16.2331 17.2975L18.1081 13.5525C18.1912 13.3864 18.3189 13.2468 18.4768 13.1491C18.6348 13.0515 18.8168 12.9998 19.0025 12.9998C19.1882 12.9998 19.3702 13.0515 19.5282 13.1491C19.6861 13.2468 19.8138 13.3864 19.8969 13.5525L21.6181 17H27.6656C28.566 15.1437 29.0228 13.1036 29 11.0406C28.9606 7.15875 25.8462 4 22.0575 4C19.0519 4 17.0575 5.84625 16 7.1875C14.945 5.84438 12.9481 4 9.9425 4C6.15375 4 3.03937 7.15875 3 11.0406C2.98384 12.3811 3.17204 13.7162 3.55812 15H9.38187L12.1056 9.5525Z" fill="#3058A6"/>
<path d="M20.1056 18.4475L19 16.2362L16.8944 20.4475C16.8113 20.6135 16.6836 20.7532 16.5257 20.8508C16.3677 20.9483 16.1857 21 16 21C15.9721 21 15.9433 20.9987 15.9138 20.9962C15.7136 20.9796 15.5231 20.9032 15.367 20.7767C15.2109 20.6503 15.0966 20.4798 15.0388 20.2875L12.7638 12.7025L10.8888 16.4475C10.8061 16.6127 10.6793 16.7518 10.5224 16.8493C10.3655 16.9468 10.1847 16.999 10 17H4.33438C4.91771 18.2204 5.69417 19.4217 6.66376 20.6037C7.83688 22.0337 9.96376 24.32 14.8756 27.6544C15.2069 27.8814 15.5991 28.0029 16.0006 28.0029C16.4022 28.0029 16.7944 27.8814 17.1256 27.6544C22.0375 24.32 24.1644 22.0337 25.3375 20.6037C25.76 20.0895 26.1564 19.5542 26.525 19H21C20.8143 19 20.6323 18.9483 20.4744 18.8508C20.3164 18.7532 20.1887 18.6135 20.1056 18.4475Z" fill="#3058A6"/>
<path d="M29 17H27.6656C27.3332 17.6928 26.952 18.3611 26.525 19H29C29.2652 19 29.5196 18.8946 29.7071 18.7071C29.8946 18.5196 30 18.2652 30 18C30 17.7348 29.8946 17.4804 29.7071 17.2929C29.5196 17.1054 29.2652 17 29 17Z" fill="#3058A6"/>
<path d="M3 15C2.73478 15 2.48043 15.1054 2.29289 15.2929C2.10536 15.4804 2 15.7348 2 16C2 16.2652 2.10536 16.5196 2.29289 16.7071C2.48043 16.8946 2.73478 17 3 17H4.33437C4.02512 16.3541 3.76562 15.6854 3.55813 15H3Z" fill="#3058A6"/>
</svg>
